<svg width="44" height="44" viewBox="0 0 44 44" fill="none" xmlns="http://www.w3.org/2000/svg">
<rect width="44" height="44" rx="13" fill="#FFE1C4"/>
<path d="M30.25 13.75V31C30.25 31.1989 30.171 31.3897 30.0303 31.5303C29.8897 31.671 29.6989 31.75 29.5 31.75C29.3011 31.75 29.1103 31.671 28.9697 31.5303C28.829 31.3897 28.75 31.1989 28.75 31V26.5H24.25C24.0511 26.5 23.8603 26.421 23.7197 26.2803C23.579 26.1397 23.5 25.9489 23.5 25.75C23.5349 23.9534 23.7618 22.1658 24.1769 20.4175C25.0938 16.6216 26.8319 14.0772 29.2047 13.0609C29.3187 13.0121 29.4431 12.9923 29.5667 13.0033C29.6903 13.0143 29.8092 13.0559 29.9128 13.1242C30.0164 13.1924 30.1014 13.2854 30.1603 13.3946C30.2191 13.5038 30.2499 13.6259 30.25 13.75ZM21.2397 13.6272C21.225 13.5287 21.1908 13.4341 21.1392 13.349C21.0876 13.2638 21.0195 13.1898 20.939 13.1313C20.8585 13.0727 20.7671 13.0308 20.6702 13.0079C20.5733 12.985 20.4728 12.9817 20.3746 12.998C20.2764 13.0144 20.1824 13.0502 20.0982 13.1032C20.0139 13.1563 19.9411 13.2256 19.8839 13.3071C19.8267 13.3886 19.7863 13.4807 19.7651 13.578C19.7439 13.6753 19.7423 13.7758 19.7603 13.8737L20.4897 18.25H18.25V13.75C18.25 13.5511 18.171 13.3603 18.0303 13.2197C17.8897 13.079 17.6989 13 17.5 13C17.3011 13 17.1103 13.079 16.9697 13.2197C16.829 13.3603 16.75 13.5511 16.75 13.75V18.25H14.5103L15.2397 13.8737C15.2577 13.7758 15.2561 13.6753 15.2349 13.578C15.2137 13.4807 15.1733 13.3886 15.1161 13.3071C15.0589 13.2256 14.9861 13.1563 14.9018 13.1032C14.8176 13.0502 14.7236 13.0144 14.6254 12.998C14.5272 12.9817 14.4267 12.985 14.3298 13.0079C14.2329 13.0308 14.1415 13.0727 14.061 13.1313C13.9805 13.1898 13.9124 13.2638 13.8608 13.349C13.8092 13.4341 13.775 13.5287 13.7603 13.6272L13.0103 18.1272C13.0035 18.1678 13.0001 18.2088 13 18.25C13.0015 19.3129 13.3787 20.3411 14.0649 21.1529C14.7511 21.9647 15.7021 22.5078 16.75 22.6862V31C16.75 31.1989 16.829 31.3897 16.9697 31.5303C17.1103 31.671 17.3011 31.75 17.5 31.75C17.6989 31.75 17.8897 31.671 18.0303 31.5303C18.171 31.3897 18.25 31.1989 18.25 31V22.6862C19.2979 22.5078 20.2489 21.9647 20.9351 21.1529C21.6213 20.3411 21.9985 19.3129 22 18.25C21.9999 18.2088 21.9965 18.1678 21.9897 18.1272L21.2397 13.6272Z" fill="#FF7A18"/>
</svg>
