<svg width="44" height="44" viewBox="0 0 44 44" fill="none" xmlns="http://www.w3.org/2000/svg">
<rect width="44" height="44" rx="13" fill="#FFE1C4"/>
<g clip-path="url(#clip0_20422_789)">
<g clip-path="url(#clip1_20422_789)">
<path d="M33.9456 20.9688L32.6331 17.6875C32.5218 17.4099 32.3296 17.1721 32.0816 17.0049C31.8335 16.8378 31.541 16.749 31.2419 16.75H28V16C28 15.8011 27.921 15.6103 27.7803 15.4697C27.6397 15.329 27.4489 15.25 27.25 15.25H13C12.6022 15.25 12.2206 15.408 11.9393 15.6893C11.658 15.9706 11.5 16.3522 11.5 16.75V27.25C11.5 27.6478 11.658 28.0294 11.9393 28.3107C12.2206 28.592 12.6022 28.75 13 28.75H14.5938C14.759 29.3953 15.1343 29.9673 15.6605 30.3757C16.1867 30.7842 16.8339 31.0059 17.5 31.0059C18.1661 31.0059 18.8133 30.7842 19.3395 30.3757C19.8657 29.9673 20.241 29.3953 20.4062 28.75H25.0938C25.259 29.3953 25.6343 29.9673 26.1605 30.3757C26.6867 30.7842 27.3339 31.0059 28 31.0059C28.6661 31.0059 29.3133 30.7842 29.8395 30.3757C30.3657 29.9673 30.741 29.3953 30.9062 28.75H32.5C32.8978 28.75 33.2794 28.592 33.5607 28.3107C33.842 28.0294 34 27.6478 34 27.25V21.25C34.0004 21.1536 33.9819 21.0581 33.9456 20.9688ZM28 18.25H31.2419L32.1419 20.5H28V18.25ZM13 16.75H26.5V22.75H13V16.75ZM17.5 29.5C17.2033 29.5 16.9133 29.412 16.6666 29.2472C16.42 29.0824 16.2277 28.8481 16.1142 28.574C16.0006 28.2999 15.9709 27.9983 16.0288 27.7074C16.0867 27.4164 16.2296 27.1491 16.4393 26.9393C16.6491 26.7296 16.9164 26.5867 17.2074 26.5288C17.4983 26.4709 17.7999 26.5006 18.074 26.6142C18.3481 26.7277 18.5824 26.92 18.7472 27.1666C18.912 27.4133 19 27.7033 19 28C19 28.3978 18.842 28.7794 18.5607 29.0607C18.2794 29.342 17.8978 29.5 17.5 29.5ZM25.0938 27.25H20.4062C20.241 26.6047 19.8657 26.0327 19.3395 25.6243C18.8133 25.2158 18.1661 24.9941 17.5 24.9941C16.8339 24.9941 16.1867 25.2158 15.6605 25.6243C15.1343 26.0327 14.759 26.6047 14.5938 27.25H13V24.25H26.5V25.4041C26.1551 25.6034 25.8532 25.8692 25.6118 26.186C25.3704 26.5029 25.1943 26.8646 25.0938 27.25ZM28 29.5C27.7033 29.5 27.4133 29.412 27.1666 29.2472C26.92 29.0824 26.7277 28.8481 26.6142 28.574C26.5006 28.2999 26.4709 27.9983 26.5288 27.7074C26.5867 27.4164 26.7296 27.1491 26.9393 26.9393C27.1491 26.7296 27.4164 26.5867 27.7074 26.5288C27.9983 26.4709 28.2999 26.5006 28.574 26.6142C28.8481 26.7277 29.0824 26.92 29.2472 27.1666C29.412 27.4133 29.5 27.7033 29.5 28C29.5 28.3978 29.342 28.7794 29.0607 29.0607C28.7794 29.342 28.3978 29.5 28 29.5ZM32.5 27.25H30.9062C30.739 26.6063 30.363 26.0362 29.8371 25.629C29.3112 25.2218 28.6651 25.0006 28 25V22H32.5V27.25Z" fill="#FF7A18"/>
</g>
</g>
<defs>
<clipPath id="clip0_20422_789">
<rect width="24" height="24" fill="white" transform="translate(10 10)"/>
</clipPath>
<clipPath id="clip1_20422_789">
<rect width="24" height="24" fill="white" transform="translate(10 10)"/>
</clipPath>
</defs>
</svg>
